<?xml version="1.0" standalone="no"?><!DOCTYPE svg PUBLIC "-//W3C//DTD SVG 1.1//EN" "http://www.w3.org/Graphics/SVG/1.1/DTD/svg11.dtd"><svg t="1680844551800" class="icon" viewBox="0 0 1024 1024" version="1.1" xmlns="http://www.w3.org/2000/svg" p-id="14987" xmlns:xlink="http://www.w3.org/1999/xlink" width="200" height="200"><path d="M776.1 897.5h-530c-41.7 0-75.7-37.4-75.7-83.4V523.5c0-11.4 9.2-20.6 20.6-20.6s20.6 9.2 20.6 20.6v290.7c0 23.3 15.5 42.2 34.5 42.2h530c11.4 0 20.6 9.2 20.6 20.6s-9.2 20.5-20.6 20.5z" fill="#333333" p-id="14988"></path><path d="M659.6 539.4c-27.4 0-53.5-9.6-74.3-26.8-20.8 17.2-46.8 26.7-74.1 26.8h-0.3c-27.3-0.1-53.2-9.6-73.9-26.8-20.8 17.2-47 26.8-74.3 26.8-27.4 0-53.5-9.6-74.3-26.8-20.8 17.2-46.9 26.8-74.3 26.8h-0.1c-60.1-0.2-110.5-46.1-117.3-106.6l-0.2-1.8 2-30.3c0.4-4.6 1.4-9.2 3.2-13.5l0.2-0.5 74.2-170.3c1.7-4.4 14.8-35.9 37.7-60.1 18.5-19.6 47.5-29.9 83.8-29.9 5.2 0 9.1 0.2 10.9 0.4l407.2-0.1c2.9-0.2 7.1-0.3 9.2-0.3 25.3 0 60.4 5.2 83.8 29.9 22.3 23.5 35 53.4 37.7 60L920.8 387c1.8 4.3 2.9 8.9 3.3 13.7l2 25.1-0.2 1.9c-6.9 64.8-56.2 111.8-117.4 111.8-27.3 0-53.4-9.6-74.3-26.8-21 17.1-47.1 26.7-74.6 26.7z m-74.3-88.3l15.9 19.2c14.6 17.7 35.9 27.8 58.4 27.8 22.6 0 43.9-10.1 58.4-27.8l15.9-19.2 15.9 19.2c14.6 17.7 35.9 27.8 58.4 27.8 39.1 0 70.9-30.6 76.2-73.1l-1.7-21.2c0-0.6-0.1-0.9-0.2-1L808.3 232l-0.1-0.3c-0.5-1.1-11.3-28.1-29.5-47.2-14-14.8-39.8-17-53.9-17-3.1 0-5.4 0.1-6.3 0.1l-0.8 0.1-411.1 0.1-0.9-0.1s-3.3-0.3-8.3-0.3c-17.2 0-40.6 3-53.9 17-15.5 16.4-26.5 39.5-29.4 47.1l-0.3 0.8-74.2 170.3c-0.1 0.3-0.2 0.7-0.2 1l-1.7 26.1c5.2 38.9 37.7 68.1 76.2 68.3 22.5 0 43.8-10.1 58.3-27.8l15.9-19.2 15.9 19.2c14.6 17.6 35.9 27.8 58.5 27.8s43.9-10.1 58.5-27.7l15.9-19.2 15.9 19.2c14.5 17.5 35.7 27.6 58.1 27.7h0.2c22.4 0 43.7-10.1 58.2-27.7l16-19.2z m133.8-283.6h-0.3 0.3z" fill="#333333" p-id="14989"></path><path d="M745.1 816c-5.3 0-10.6-2-14.6-6l-91.7-91.7c-8.1-8-8.1-21.1 0-29.2l91.7-91.7c8-8.1 21.1-8.1 29.2 0 8.1 8 8.1 21.1 0 29.2l-77.1 77.1 77.1 77.1c8.1 8 8.1 21.1 0 29.2-4 4-9.3 6-14.6 6z" fill="#333333" p-id="14990"></path><path d="M655.4 724.7c-11.3 0-20.6-9.2-20.6-20.5 0-11.4 9.2-20.6 20.5-20.7l249.6-0.9h0.1c11.4 0 20.6 9.2 20.6 20.5 0 11.4-9.2 20.6-20.5 20.7l-249.7 0.9z" fill="#333333" p-id="14991"></path></svg>