<?xml version="1.0" standalone="no"?><!DOCTYPE svg PUBLIC "-//W3C//DTD SVG 1.1//EN" "http://www.w3.org/Graphics/SVG/1.1/DTD/svg11.dtd"><svg t="1680606008141" class="icon" viewBox="0 0 1024 1024" version="1.1" xmlns="http://www.w3.org/2000/svg" p-id="9944" xmlns:xlink="http://www.w3.org/1999/xlink" width="200" height="200"><path d="M916.210526 0H107.789474a80.842105 80.842105 0 0 0-80.842106 80.842105v862.31579a80.842105 80.842105 0 0 0 80.842106 80.842105h808.421052a80.842105 80.842105 0 0 0 80.842106-80.842105V80.842105a80.842105 80.842105 0 0 0-80.842106-80.842105z m26.947369 943.157895a26.947368 26.947368 0 0 1-26.947369 26.947368H107.789474a26.947368 26.947368 0 0 1-26.947369-26.947368V80.842105a26.947368 26.947368 0 0 1 26.947369-26.947368h808.421052a26.947368 26.947368 0 0 1 26.947369 26.947368z" p-id="9945" fill="#e6e6e6"></path><path d="M835.368421 107.789474H188.631579a53.894737 53.894737 0 0 0-53.894737 53.894737v700.631578a53.894737 53.894737 0 0 0 53.894737 53.894737h646.736842a53.894737 53.894737 0 0 0 53.894737-53.894737V161.684211a53.894737 53.894737 0 0 0-53.894737-53.894737z m0 53.894737v443.553684H188.631579V161.684211zM188.631579 862.315789v-203.183157h646.736842V862.315789z" p-id="9946" fill="#e6e6e6"></path><path d="M670.181053 343.848421h-109.136842l96.202105-124.227368h-159.528421l-117.221053 195.637894h88.387369l-88.387369 155.75579 289.684211-227.166316z" p-id="9947" fill="#e6e6e6"></path><path d="M542.72 756.951579m-50.930526 0a50.930526 50.930526 0 1 0 101.861052 0 50.930526 50.930526 0 1 0-101.861052 0Z" p-id="9948" fill="#e6e6e6"></path><path d="M706.290526 756.951579m-50.930526 0a50.930526 50.930526 0 1 0 101.861053 0 50.930526 50.930526 0 1 0-101.861053 0Z" p-id="9949" fill="#e6e6e6"></path></svg>