<?xml version="1.0" standalone="no"?><!DOCTYPE svg PUBLIC "-//W3C//DTD SVG 1.1//EN" "http://www.w3.org/Graphics/SVG/1.1/DTD/svg11.dtd"><svg t="1681709881010" class="icon" viewBox="0 0 1024 1024" version="1.1" xmlns="http://www.w3.org/2000/svg" p-id="2864" xmlns:xlink="http://www.w3.org/1999/xlink" width="200" height="200"><path d="M889.152 371.008c21.312 20.992 32.256 47.552 32.832 79.616v357.888c-0.576 31.488-11.52 57.856-32.832 79.168s-47.68 32.256-79.168 32.832h-481.28c-63.616-1.728-116.352-23.616-158.4-65.6s-63.872-94.784-65.6-158.4V338.624h705.28c31.488 0.576 57.856 11.392 79.168 32.384zM122.176 200.384c-11.072-12.8-16.768-26.56-17.088-41.152-0.32-14.592 4.672-27.392 14.848-38.528 10.176-11.072 23.744-16.896 40.704-17.472h525.888v117.248H160.704c-14.592-0.512-27.456-7.232-38.528-20.096z m657.6 458.944c16.64-16.64 26.688-37.76 30.208-63.424-0.576-25.664-9.216-46.784-25.792-63.424s-37.76-24.96-63.424-24.96-46.976 8.32-63.872 24.96c-16.896 16.64-25.344 37.76-25.344 63.424s8.448 46.784 25.344 63.424c16.896 16.64 38.208 25.216 63.872 25.792 22.656-0.576 42.368-9.152 59.008-25.792z" p-id="2865"></path></svg>