<?xml version="1.0" standalone="no"?><!DOCTYPE svg PUBLIC "-//W3C//DTD SVG 1.1//EN" "http://www.w3.org/Graphics/SVG/1.1/DTD/svg11.dtd"><svg t="1681277288392" class="icon" viewBox="0 0 1024 1024" version="1.1" xmlns="http://www.w3.org/2000/svg" p-id="23163" xmlns:xlink="http://www.w3.org/1999/xlink" width="200" height="200"><path d="M421.954672 131.069665c0.027975 49.721574 40.35598 90.007008 90.077554 89.987547 49.720358-0.018245 90.015522-40.337735 90.007008-90.05931s-40.315842-90.025253-90.038632-90.025252c-49.742251 0.027975-90.04593 40.35598-90.04593 90.097015z" fill="#808080" p-id="23164"></path><path d="M306.214174 389.555196l75.51588-75.568181 120.619121-120.619121 27.584715-27.581067c9.847253-9.934828 9.773058-25.975536-0.156904-35.81914-9.934828-9.849686-25.973103-9.777923-35.817924 0.156904l-75.568181 75.671568L270.185828 354.001212c-9.872796 9.872796-9.872796 25.889178 0 35.761973 9.877661 9.878877 25.890394 9.878877 35.768055 0l0.260291-0.207989z" fill="#808080" p-id="23165"></path><path d="M494.377473 165.996033l75.779819 75.829688 120.145977 120.038941 27.740403 27.690534c9.872796 9.877661 25.889178 9.877661 35.764406 0 9.877661-9.877661 9.877661-25.890394 0-35.76319l-76.041326-75.833337-119.984207-120.040157-27.690534-27.793921c-9.877661-9.877661-25.890394-9.877661-35.768056 0-9.877661 9.877661-9.877661 25.889178 0 35.766839l0.053518 0.104603z" fill="#808080" p-id="23166"></path><path d="M965.489965 354.694509a63.205597 63.205597 0 0 0-44.704291-18.524416H103.209449c-34.906907 0.027975-63.191001 28.336395-63.191001 63.243303v522.272962c0 34.911772 28.284094 63.215327 63.191001 63.248168H920.785674a63.189785 63.189785 0 0 0 44.704291-18.529281 63.223842 63.223842 0 0 0 18.491575-44.718887V399.413396a63.233572 63.233572 0 0 0-18.491575-44.718887zM183.971278 517.200945h316.017037c13.960817 0 25.274941 11.317773 25.274941 25.276158s-11.31534 25.276157-25.274941 25.276157H183.971278c-13.9596 0-25.277374-11.317773-25.277374-25.276157s11.317773-25.276157 25.277374-25.276158z m421.373889 286.545825v-0.057167h-0.734652c-17.09525 0.423276-34.244018 0-51.3417 0H183.971278c-13.52781-0.613021-24.17418-11.759294-24.17418-25.300483s10.646369-24.687463 24.17418-25.305349h0.683566c17.09525-0.418411 34.241585 0 51.341701 0h369.348622c13.868377 0.279752 25.05114 11.460081 25.328459 25.328459-0.142308 13.931625-11.39805 25.192232-25.328459 25.33454z m210.815874-117.735248H814.954461c-25.430629 0.523014-50.915991 0-76.353918 0H183.971278a25.277374 25.277374 0 0 1 0-50.553531h1.101977c25.433061-0.527879 50.923289 0 76.304049 0h554.783737c13.962033 0 25.27859 11.317773 25.27859 25.276157s-11.316557 25.277374-25.27859 25.277374z" fill="#808080" p-id="23167"></path></svg>