<?xml version="1.0" standalone="no"?><!DOCTYPE svg PUBLIC "-//W3C//DTD SVG 1.1//EN" "http://www.w3.org/Graphics/SVG/1.1/DTD/svg11.dtd"><svg t="1680606236317" class="icon" viewBox="0 0 1024 1024" version="1.1" xmlns="http://www.w3.org/2000/svg" p-id="11525" xmlns:xlink="http://www.w3.org/1999/xlink" width="200" height="200"><path d="M628.132821 462.893619H493.06671l-55.480314 162.812159h84.416319l-14.468003 162.812159 164.013899-205.02621h-86.83158l43.41579-120.598108z" fill="#e6e6e6" p-id="11526"></path><path d="M722.328002 111.290517v-73.04692A38.278942 38.278942 0 0 0 684.04906 0h-344.145247a38.278942 38.278942 0 0 0-38.243597 38.243597v73.04692H157.215823v912.709483h709.568354V111.290517z m-355.125848-0.341671l3.982235-12.276595c1.908645-2.615551 6.809858-5.14863 13.030628-5.14863h256.241526c6.114734 0 10.898129 2.356352 12.901029 4.983685l4.429942 12.453322H367.202154z m-27.298341-77.948133h344.145247a5.254666 5.254666 0 0 1 5.254666 5.254666v63.044204l-5.996917-16.847918-0.659779-1.178176c-7.775962-14.020296-23.975884-22.727018-42.261177-22.727018H384.215017c-18.626965 0-35.463101 9.3665-42.862047 23.858067l-0.60087 1.178176-6.102953 18.791909v-66.095681a5.278229 5.278229 0 0 1 5.254666-5.278229z m493.891433 856.675427H348.91686v32.988931h484.878386v68.334216H190.204754v-68.334216h107.543917v-32.988931H190.204754v-633.387487h643.590492zM190.204754 222.95805v-78.66682h643.590492v78.66682z" fill="#e6e6e6" p-id="11527"></path><path d="M792.74759 176.420093l-15.905378-18.143912h-105.753089l-15.905378 18.143912a11.204455 11.204455 0 0 0 0 14.762547l15.905378 18.143913h105.729525l15.905378-18.143913a11.204455 11.204455 0 0 0 0.023564-14.762547zM446.057482 612.321697l-7.163311 80.54012-9.684608 108.89882 68.334216-85.370642 117.310997-146.635801 42.873829-53.595232h-83.874358l15.151345-42.096233 15.893596-44.205169H437.810249l-7.611018 22.385347-39.680972 116.439147-14.868582 43.592516h70.407805z m15.31629-149.475205h96.610442l-31.056722 86.254274h62.101663l-117.310997 146.682928 10.356168-116.439147h-60.381526z" fill="#e6e6e6" p-id="11528"></path><path d="M683.469068 183.797741m-5.656724 5.656725a7.999816 7.999816 0 1 0 11.313448-11.313449 7.999816 7.999816 0 1 0-11.313448 11.313449Z" fill="#e6e6e6" p-id="11529"></path><path d="M764.459581 183.795476m-7.999816 0a7.999816 7.999816 0 1 0 15.999632 0 7.999816 7.999816 0 1 0-15.999632 0Z" fill="#e6e6e6" p-id="11530"></path></svg>