<?xml version="1.0" standalone="no"?><!DOCTYPE svg PUBLIC "-//W3C//DTD SVG 1.1//EN" "http://www.w3.org/Graphics/SVG/1.1/DTD/svg11.dtd"><svg t="1680605603401" class="icon" viewBox="0 0 1024 1024" version="1.1" xmlns="http://www.w3.org/2000/svg" p-id="5699" xmlns:xlink="http://www.w3.org/1999/xlink" width="200" height="200"><path d="M787.46 148.83h-34.21V90.56c0-14.63-11.86-26.49-26.49-26.49H578.44c-14.63 0-26.49 11.86-26.49 26.49v58.27h-79.9V90.56c0-14.63-11.86-26.49-26.49-26.49H297.24c-14.63 0-26.49 11.86-26.49 26.49v58.27h-34.21c-37.97 0-68.86 30.89-68.86 68.86v673.37c0 37.97 30.89 68.86 68.86 68.86h550.91c37.97 0 68.86-30.89 68.86-68.86V217.69c0.01-37.97-30.88-68.86-68.85-68.86z m-182.54-31.78h95.35v31.78h-95.35v-31.78z m-281.19 0h95.35v31.78h-95.35v-31.78z m-87.19 84.75h550.92c8.76 0 15.89 7.13 15.89 15.89v146.86h-582.7V217.69c0-8.76 7.13-15.89 15.89-15.89z m550.92 705.15H236.54c-8.76 0-15.89-7.13-15.89-15.89V417.53h582.7v473.53c0 8.76-7.13 15.89-15.89 15.89z" p-id="5700"></path><path d="M556.11 631.42H520.6l33.17-44.59c8.73-11.74 6.29-28.33-5.44-37.06s-28.33-6.3-37.06 5.44l-64.64 86.89a26.49 26.49 0 0 0-2.42 27.7 26.498 26.498 0 0 0 23.67 14.59h39.42l-35.51 54.62c-7.97 12.27-4.5 28.67 7.77 36.65a26.34 26.34 0 0 0 14.41 4.28c8.66 0 17.16-4.25 22.23-12.05l62.12-95.55c5.29-8.14 5.71-18.54 1.07-27.07a26.486 26.486 0 0 0-23.28-13.85zM607.69 309.67h89.81c14.63 0 26.49-11.86 26.49-26.49 0-14.63-11.86-26.49-26.49-26.49h-89.81c-14.63 0-26.49 11.86-26.49 26.49 0.01 14.63 11.87 26.49 26.49 26.49zM326.49 309.67h18.42v16.12c0 14.63 11.86 26.49 26.49 26.49s26.49-11.86 26.49-26.49v-16.12h18.42c14.63 0 26.49-11.86 26.49-26.49 0-14.63-11.86-26.49-26.49-26.49h-18.42v-16.12c0-14.63-11.86-26.49-26.49-26.49s-26.49 11.86-26.49 26.49v16.12h-18.42c-14.63 0-26.49 11.86-26.49 26.49 0.01 14.63 11.87 26.49 26.49 26.49z" p-id="5701"></path></svg>